<svg width="62" height="61" viewBox="0 0 62 61" fill="none" xmlns="http://www.w3.org/2000/svg">
<path d="M46.8659 0H14.3467C6.42323 0 0 6.40093 0 14.2969V46.7031C0 54.5991 6.42323 61 14.3467 61H46.8659C54.7893 61 61.2125 54.5991 61.2125 46.7031V14.2969C61.2125 6.40093 54.7893 0 46.8659 0Z" fill="url(#paint0_radial_2058_60)"/>
<path d="M46.8659 0H14.3467C6.42323 0 0 6.40093 0 14.2969V46.7031C0 54.5991 6.42323 61 14.3467 61H46.8659C54.7893 61 61.2125 54.5991 61.2125 46.7031V14.2969C61.2125 6.40093 54.7893 0 46.8659 0Z" fill="url(#paint1_radial_2058_60)"/>
<path d="M30.6084 6.67188C24.1146 6.67188 23.2995 6.70023 20.7491 6.8158C18.2036 6.93208 16.4659 7.33358 14.9457 7.92285C13.3728 8.53142 12.0388 9.34563 10.7098 10.6705C9.37963 11.9951 8.56258 13.3244 7.94998 14.8911C7.35698 16.4066 6.9536 18.1389 6.83907 20.6745C6.72501 23.2162 6.69512 24.0288 6.69512 30.5002C6.69512 36.9717 6.72382 37.7814 6.83955 40.3229C6.95671 42.8596 7.35961 44.5912 7.95046 46.1062C8.56163 47.6736 9.37867 49.003 10.7081 50.3274C12.0369 51.6529 13.3709 52.4691 14.9426 53.0776C16.464 53.6669 18.2019 54.0684 20.747 54.1847C23.2976 54.3002 24.112 54.3286 30.6056 54.3286C37.1001 54.3286 37.9126 54.3002 40.4629 54.1847C43.0085 54.0684 44.748 53.6669 46.2695 53.0776C47.8417 52.4691 49.1738 51.6529 50.5023 50.3274C51.8324 49.003 52.6492 47.6736 53.2621 46.1069C53.8498 44.5912 54.2534 42.8592 54.373 40.3234C54.4875 37.7819 54.5174 36.9717 54.5174 30.5002C54.5174 24.0288 54.4875 23.2167 54.373 20.6749C54.2534 18.1382 53.8498 16.4069 53.2621 14.8919C52.6492 13.3244 51.8324 11.9951 50.5023 10.6705C49.1723 9.34515 47.8421 8.53095 46.2681 7.92309C44.7437 7.33358 43.0052 6.93184 40.4596 6.8158C37.909 6.70023 37.097 6.67188 30.601 6.67188H30.6084ZM28.4634 10.9659C29.1001 10.965 29.8105 10.9659 30.6084 10.9659C36.9929 10.9659 37.7495 10.9888 40.2707 11.103C42.602 11.2092 43.8674 11.5974 44.7103 11.9236C45.8262 12.3554 46.6217 12.8717 47.4581 13.7059C48.295 14.5399 48.8129 15.3341 49.2474 16.4462C49.5747 17.2849 49.9647 18.5459 50.0709 20.8691C50.1854 23.3811 50.2103 24.1355 50.2103 30.4948C50.2103 36.854 50.1854 37.6086 50.0709 40.1204C49.9643 42.4436 49.5747 43.7046 49.2474 44.5436C48.8141 45.6556 48.295 46.4474 47.4581 47.281C46.6212 48.1149 45.8267 48.6311 44.7103 49.0631C43.8684 49.3907 42.602 49.7779 40.2707 49.8842C37.75 49.9983 36.9929 50.0231 30.6084 50.0231C24.2237 50.0231 23.4669 49.9983 20.9464 49.8842C18.6151 49.777 17.3497 49.3888 16.5061 49.0626C15.3904 48.6306 14.5932 48.1145 13.7563 47.2805C12.9194 46.4465 12.4015 45.6542 11.9671 44.5417C11.6397 43.7027 11.2497 42.4417 11.1436 40.1185C11.029 37.6065 11.0061 36.8521 11.0061 30.4888C11.0061 24.1255 11.029 23.3752 11.1436 20.8632C11.2502 18.5399 11.6397 17.279 11.9671 16.439C12.4006 15.327 12.9194 14.5328 13.7566 13.6988C14.5937 12.8648 15.3904 12.3484 16.5063 11.9157C17.3492 11.5881 18.6151 11.2009 20.9464 11.0941C23.1522 10.9948 24.007 10.965 28.4634 10.96V10.9659ZM43.3722 14.9224C41.7881 14.9224 40.5029 16.2019 40.5029 17.7808C40.5029 19.3594 41.7881 20.6402 43.3722 20.6402C44.9563 20.6402 46.2415 19.3594 46.2415 17.7808C46.2415 16.2022 44.9563 14.9214 43.3722 14.9214V14.9224ZM30.6084 18.2633C23.8272 18.2633 18.3291 23.7423 18.3291 30.5002C18.3291 37.2581 23.8272 42.7346 30.6084 42.7346C37.3899 42.7346 42.8861 37.2581 42.8861 30.5002C42.8861 23.7426 37.3894 18.2633 30.6079 18.2633H30.6084ZM30.6084 22.5574C35.0102 22.5574 38.579 26.1132 38.579 30.5002C38.579 34.8868 35.0102 38.4431 30.6084 38.4431C26.2066 38.4431 22.6381 34.8868 22.6381 30.5002C22.6381 26.1132 26.2064 22.5574 30.6084 22.5574Z" fill="white"/>
<defs>
<radialGradient id="paint0_radial_2058_60" cx="0" cy="0" r="1" gradientUnits="userSpaceOnUse" gradientTransform="translate(16.2596 65.6982) rotate(-90) scale(60.4555 56.4243)">
<stop stop-color="#FFDD55"/>
<stop offset="0.1" stop-color="#FFDD55"/>
<stop offset="0.5" stop-color="#FF543E"/>
<stop offset="1" stop-color="#C837AB"/>
</radialGradient>
<radialGradient id="paint1_radial_2058_60" cx="0" cy="0" r="1" gradientTransform="matrix(5.32297 26.4982 -109.607 21.8653 -10.2533 4.39429)" gradientUnits="userSpaceOnUse">
<stop stop-color="#3771C8"/>
<stop offset="0.128" stop-color="#3771C8"/>
<stop offset="1" stop-color="#6600FF" stop-opacity="0"/>
</radialGradient>
</defs>
</svg>
