<svg width="240" height="44" viewBox="0 0 240 44" fill="none" xmlns="http://www.w3.org/2000/svg">
<path d="M0.234375 32.7188C0.078125 32.5625 0 32.3281 0 32.0156C0 31.5781 0.078125 31.3594 0.234375 31.3594C0.546875 31.3594 0.953125 31.3125 1.45312 31.2188C1.95312 31.125 2.4375 31 2.90625 30.8438C3.375 30.6875 3.70312 30.5156 3.89062 30.3281C4.42188 29.7656 4.70312 28.4062 4.73438 26.25C4.79688 22.625 4.85938 19.375 4.92188 16.5C5.01562 13.5938 5.09375 11.2188 5.15625 9.375C5.21875 7.5 5.25 6.29688 5.25 5.76562C5.25 4.92188 5.1875 4.29688 5.0625 3.89062C5 3.70312 4.71875 3.54687 4.21875 3.42188C3.75 3.26562 3.23438 3.14062 2.67188 3.04688C2.10938 2.95312 1.67188 2.90625 1.35938 2.90625C1.23438 2.90625 1.17188 2.6875 1.17188 2.25C1.17188 1.90625 1.23438 1.67187 1.35938 1.54688C2.10938 1.57812 2.9375 1.625 3.84375 1.6875C4.75 1.75 5.67188 1.78125 6.60938 1.78125C7.20312 1.78125 7.84375 1.76562 8.53125 1.73438C9.25 1.67187 10.0469 1.60938 10.9219 1.54688C11.1719 2.23437 14.2656 10.0625 20.2031 25.0312C20.2656 25.0938 20.3281 25.125 20.3906 25.125C20.5156 25.125 20.5938 25.0625 20.625 24.9375C22.1562 21.3438 23.5312 18.0625 24.75 15.0938C25.9688 12.125 27.0312 9.48438 27.9375 7.17188L29.8125 1.54688C30.8125 1.60938 31.625 1.65625 32.25 1.6875C32.9062 1.71875 33.3906 1.73438 33.7031 1.73438C34.6719 1.73438 35.5938 1.71875 36.4688 1.6875C37.3438 1.65625 38.1719 1.60938 38.9531 1.54688C39.0469 1.82812 39.0938 2.0625 39.0938 2.25C39.0938 2.6875 39.0156 2.90625 38.8594 2.90625H38.7656C38.4219 2.90625 37.9688 3.01563 37.4062 3.23438C36.8438 3.42188 36.4219 3.625 36.1406 3.84375C35.7656 4.125 35.5781 5.17188 35.5781 6.98438L36 26.0156C36.0625 27.8281 36.2969 29.2656 36.7031 30.3281C36.7969 30.5156 37.0469 30.6875 37.4531 30.8438C37.8594 31 38.2969 31.125 38.7656 31.2188C39.2656 31.3125 39.625 31.3594 39.8438 31.3594C39.9688 31.3594 40.0312 31.5781 40.0312 32.0156C40.0312 32.2344 40 32.4688 39.9375 32.7188C38.375 32.6562 37.125 32.6094 36.1875 32.5781C35.2812 32.5156 34.6719 32.4844 34.3594 32.4844L28.7344 32.7188C28.6094 32.5938 28.5469 32.3438 28.5469 31.9688C28.5469 31.5625 28.6094 31.3594 28.7344 31.3594C29.0469 31.3594 29.5156 31.2812 30.1406 31.125C30.7969 30.9688 31.2656 30.8125 31.5469 30.6562C31.9219 30.4062 32.1094 29.7344 32.1094 28.6406V26.1562L31.5469 9.65625C31.5469 9.3125 31.5 8.9375 31.4062 8.53125C31.3438 8.09375 31.2656 7.71875 31.1719 7.40625C31.0781 7.0625 30.9688 6.89062 30.8438 6.89062C30.7812 6.89062 30.7031 7 30.6094 7.21875L20.8125 30.6562C20.2188 32 19.6406 32.6719 19.0781 32.6719C19.0469 32.6719 18.9062 32.6406 18.6562 32.5781L7.92188 5.29688C7.82812 9.70312 7.71875 13.6406 7.59375 17.1094C7.46875 20.5469 7.35938 23.3125 7.26562 25.4062C7.20312 27.5 7.17188 28.7188 7.17188 29.0625C7.17188 29.625 7.26562 30.0312 7.45312 30.2812C7.57812 30.4375 7.89062 30.6094 8.39062 30.7969C8.89062 30.9531 9.40625 31.0938 9.9375 31.2188C10.5 31.3125 10.875 31.3594 11.0625 31.3594C11.1875 31.3594 11.25 31.5938 11.25 32.0625C11.25 32.25 11.2188 32.4688 11.1562 32.7188C9.59375 32.6562 8.35938 32.6094 7.45312 32.5781C6.54688 32.5156 5.96875 32.4844 5.71875 32.4844L0.234375 32.7188ZM47.0625 43.2188C46.4062 43.2188 45.9219 43.0156 45.6094 42.6094C45.2969 42.2031 45.1406 41.7969 45.1406 41.3906C45.1406 40.7344 45.3594 40.2344 45.7969 39.8906C48.3906 39.8906 50.1094 38.5469 50.9531 35.8594C51.1094 35.3906 51.2969 34.8281 51.5156 34.1719C51.7344 33.5156 51.9062 32.9844 52.0312 32.5781L45.3281 16.1719C45.1719 15.7969 45.0156 15.4844 44.8594 15.2344C44.7031 14.9531 44.5469 14.7344 44.3906 14.5781C44.1094 14.2969 43.6719 14.0625 43.0781 13.875C42.5156 13.6875 42.0625 13.5938 41.7188 13.5938C41.5938 13.5938 41.5312 13.3906 41.5312 12.9844C41.5312 12.6094 41.5938 12.3594 41.7188 12.2344C42.5625 12.2656 43.3906 12.3125 44.2031 12.375C45.0469 12.4062 45.9062 12.4219 46.7812 12.4219C47.7812 12.4219 48.6406 12.4062 49.3594 12.375C50.0781 12.3125 50.7344 12.2656 51.3281 12.2344C51.3906 12.4844 51.4219 12.7188 51.4219 12.9375C51.4219 13.375 51.3594 13.5938 51.2344 13.5938C51.1094 13.5938 50.875 13.6406 50.5312 13.7344C50.2188 13.8281 49.9062 13.9531 49.5938 14.1094C49.2812 14.2344 49.0938 14.3906 49.0312 14.5781V14.6719C49.0312 15.2031 50.7031 19.2812 54.0469 26.9062L57.6094 16.6406C57.8281 16.0156 57.9375 15.5312 57.9375 15.1875C57.9375 14.7188 57.6875 14.3438 57.1875 14.0625C56.7188 13.75 56.0781 13.5938 55.2656 13.5938C55.1406 13.5938 55.0781 13.3906 55.0781 12.9844C55.0781 12.6094 55.1406 12.3594 55.2656 12.2344C55.6719 12.2656 56.2812 12.3125 57.0938 12.375C57.9062 12.4375 58.6875 12.4688 59.4375 12.4688C60.125 12.4688 60.875 12.4375 61.6875 12.375C62.5 12.3125 63.1094 12.2656 63.5156 12.2344C63.5781 12.4844 63.6094 12.7188 63.6094 12.9375C63.6094 13.375 63.5469 13.5938 63.4219 13.5938C63.0156 13.5938 62.4688 13.7344 61.7812 14.0156C61.0938 14.2969 60.625 14.75 60.375 15.375L51.9844 38.0156C51.2656 39.9531 50.4531 41.2969 49.5469 42.0469C48.6406 42.8281 47.8125 43.2188 47.0625 43.2188ZM75.5156 32.7188C75.4219 32.625 75.375 32.3438 75.375 31.875C75.375 31.4688 75.4219 31.2656 75.5156 31.2656C75.8281 31.2656 76.2031 31.2188 76.6406 31.125C77.1094 31.0312 77.5469 30.9219 77.9531 30.7969C78.3906 30.6406 78.6562 30.4688 78.75 30.2812C78.9688 29.9375 79.0781 28.4688 79.0781 25.875V8.15625C79.0781 7.25 79.0469 6.45312 78.9844 5.76562C78.9531 5.07812 78.875 4.53125 78.75 4.125C78.6875 3.9375 78.4375 3.76562 78 3.60938C77.5938 3.45312 77.1406 3.32812 76.6406 3.23438C76.1719 3.14062 75.7969 3.09375 75.5156 3.09375C75.3906 3.09375 75.3281 2.90625 75.3281 2.53125C75.3281 2.125 75.3906 1.85937 75.5156 1.73438L81.1406 1.82812C81.6094 1.82812 82.125 1.82812 82.6875 1.82812C83.25 1.79688 83.8438 1.76562 84.4688 1.73438C85.0938 1.70313 85.6875 1.6875 86.25 1.6875C86.8125 1.65625 87.3125 1.64062 87.75 1.64062C88.7812 1.64062 89.8281 1.79688 90.8906 2.10938C91.9531 2.42187 92.9688 2.89062 93.9375 3.51562C94.9375 4.14062 95.7344 5.03125 96.3281 6.1875C96.9531 7.34375 97.2656 8.6875 97.2656 10.2188C97.2656 11.1875 97.0625 12.2188 96.6562 13.3125C96.25 14.4062 95.6406 15.4375 94.8281 16.4062C94.0469 17.3438 93.0469 18.1094 91.8281 18.7031C90.6406 19.2969 89.2656 19.5938 87.7031 19.5938C85.9531 19.5938 84.75 19.1562 84.0938 18.2812C83.9062 18.0625 83.8594 17.7031 83.9531 17.2031C84.0156 17.0469 84.0625 17 84.0938 17.0625C85.0625 17.4062 86.1094 17.5781 87.2344 17.5781C88.2969 17.5781 89.25 17.2812 90.0938 16.6875C90.9688 16.0625 91.6562 15.25 92.1562 14.25C92.6875 13.2188 92.9531 12.1094 92.9531 10.9219C92.9531 8.70312 92.4688 6.95312 91.5 5.67188C90.5312 4.35938 89.0312 3.70312 87 3.70312C85.5625 3.70312 84.4688 3.8125 83.7188 4.03125C83.4375 4.0625 83.2656 4.54688 83.2031 5.48438C83.1719 6.42188 83.1562 7.65625 83.1562 9.1875V25.9219C83.1562 27.9844 83.2812 29.3438 83.5312 30C83.6562 30.25 83.9531 30.4844 84.4219 30.7031C84.9219 30.9219 85.4531 31.0938 86.0156 31.2188C86.5781 31.3125 86.9844 31.3594 87.2344 31.3594C87.3594 31.3594 87.4219 31.5781 87.4219 32.0156C87.4219 32.2344 87.3906 32.4688 87.3281 32.7188C85.7656 32.6562 84.4688 32.6094 83.4375 32.5781C82.4375 32.5156 81.7031 32.4844 81.2344 32.4844L75.5156 32.7188ZM109.594 32.9062C107.719 32.9062 106 32.4375 104.438 31.5C102.875 30.5625 101.625 29.2969 100.688 27.7031C99.7812 26.1094 99.3281 24.3594 99.3281 22.4531C99.3281 20.5156 99.7656 18.7656 100.641 17.2031C101.547 15.6406 102.766 14.4062 104.297 13.5C105.828 12.5625 107.562 12.0938 109.5 12.0938C111.375 12.0938 113.078 12.5625 114.609 13.5C116.172 14.4375 117.406 15.6875 118.312 17.25C119.25 18.8125 119.719 20.5469 119.719 22.4531C119.719 24.3594 119.266 26.1094 118.359 27.7031C117.453 29.2969 116.234 30.5625 114.703 31.5C113.203 32.4375 111.5 32.9062 109.594 32.9062ZM110.016 31.0781C111.141 31.0781 112.125 30.7188 112.969 30C113.812 29.2812 114.469 28.3125 114.938 27.0938C115.438 25.875 115.688 24.5469 115.688 23.1094C115.688 21.4219 115.375 19.8906 114.75 18.5156C114.125 17.1094 113.297 16 112.266 15.1875C111.266 14.3438 110.172 13.9219 108.984 13.9219C107.891 13.9219 106.906 14.2812 106.031 15C105.188 15.6875 104.531 16.625 104.062 17.8125C103.594 18.9688 103.359 20.2812 103.359 21.75C103.359 23.4375 103.656 25 104.25 26.4375C104.875 27.8438 105.688 28.9688 106.688 29.8125C107.719 30.6562 108.828 31.0781 110.016 31.0781ZM123.234 32.7188C123.109 32.5938 123.047 32.3281 123.047 31.9219C123.047 31.5469 123.109 31.3594 123.234 31.3594C123.484 31.3594 123.828 31.3125 124.266 31.2188C124.703 31.125 125.109 31 125.484 30.8438C125.859 30.6875 126.062 30.5469 126.094 30.4219C126.219 29.9844 126.297 29.4844 126.328 28.9219C126.391 28.3594 126.422 27.7656 126.422 27.1406V18.2812C126.422 17.0938 126.203 16.25 125.766 15.75C125.453 15.375 125.078 15.125 124.641 15C124.234 14.875 123.859 14.8125 123.516 14.8125C123.203 14.7812 123.047 14.7344 123.047 14.6719C123.047 13.9219 123.141 13.5312 123.328 13.5C126.734 12.9688 128.703 12.625 129.234 12.4688L130.031 12.2344C130.156 12.2031 130.234 12.3281 130.266 12.6094C130.297 12.8906 130.297 13.0938 130.266 13.2188L129.984 15.5625C130.547 14.7188 131.312 13.9375 132.281 13.2188C133.281 12.4688 134.266 12.0938 135.234 12.0938C137.047 12.0938 138.266 12.5469 138.891 13.4531C138.891 14.5469 138.719 15.3438 138.375 15.8438C138.031 16.3438 137.609 16.5938 137.109 16.5938C136.547 16.5938 136.031 16.3281 135.562 15.7969C135.094 15.2656 134.453 15 133.641 15C133.016 15 132.422 15.2188 131.859 15.6562C131.297 16.0625 130.844 16.5938 130.5 17.25C130.188 17.875 130.031 18.5312 130.031 19.2188V26.25C130.031 27.1562 130.062 27.9531 130.125 28.6406C130.188 29.3281 130.281 29.9219 130.406 30.4219C130.469 30.5469 130.688 30.6875 131.062 30.8438C131.438 31 131.844 31.125 132.281 31.2188C132.75 31.3125 133.078 31.3594 133.266 31.3594C133.359 31.3594 133.422 31.5469 133.453 31.9219C133.484 32.2969 133.469 32.5625 133.406 32.7188L128.344 32.4844L123.234 32.7188ZM148.547 32.9062C146.984 32.9062 145.672 32.3906 144.609 31.3594C143.578 30.3281 143.062 28.8594 143.062 26.9531V15.0469H140.344C140.188 15.0469 140.109 14.7188 140.109 14.0625C140.109 13.875 140.125 13.7656 140.156 13.7344C141.094 13.2969 142.078 12.4688 143.109 11.25C143.828 10.4062 144.359 9.67188 144.703 9.04688C145.078 8.42188 145.266 8.04688 145.266 7.92188C146.203 7.92188 146.672 8 146.672 8.15625V12.7969L150.375 12.8438H153C153.25 12.8438 153.375 12.9844 153.375 13.2656C153.375 13.8594 153.219 14.4531 152.906 15.0469H146.672V26.5312C146.672 27.7812 146.984 28.7812 147.609 29.5312C148.266 30.2812 149.109 30.6562 150.141 30.6562C151.109 30.6562 152.078 30.3594 153.047 29.7656C153.141 29.7031 153.281 29.8438 153.469 30.1875C153.656 30.5 153.734 30.6719 153.703 30.7031C153.234 31.2031 152.516 31.7031 151.547 32.2031C150.578 32.6719 149.578 32.9062 148.547 32.9062ZM155.438 32.7188C155.344 32.625 155.281 32.375 155.25 31.9688C155.25 31.5625 155.312 31.3594 155.438 31.3594C155.688 31.3594 156.016 31.3125 156.422 31.2188C156.828 31.125 157.203 31 157.547 30.8438C157.922 30.6875 158.125 30.5469 158.156 30.4219C158.312 29.7969 158.422 29.1406 158.484 28.4531C158.578 27.7656 158.625 27.0312 158.625 26.25V15.4688C158.625 15.25 158.547 15.1406 158.391 15.1406H155.906C155.812 15.1406 155.766 15.0469 155.766 14.8594C155.766 14.5781 156 14.1875 156.469 13.6875C156.969 13.1875 157.516 12.9375 158.109 12.9375H158.391C158.547 12.9375 158.625 12.8438 158.625 12.6562V12.0469C158.625 10.3906 158.891 8.84375 159.422 7.40625C159.953 5.96875 160.656 4.6875 161.531 3.5625C162.438 2.4375 163.438 1.5625 164.531 0.9375C165.656 0.3125 166.797 0 167.953 0C170.234 0 171.719 0.609375 172.406 1.82812C172.406 3.79688 171.844 4.78125 170.719 4.78125C170.375 4.78125 170.062 4.64062 169.781 4.35938C169.5 4.04688 169.203 3.70312 168.891 3.32812C168.609 2.92188 168.266 2.57812 167.859 2.29688C167.484 1.98438 167.031 1.82812 166.5 1.82812C165.594 1.82812 164.812 2.21875 164.156 3C163.5 3.78125 163 4.8125 162.656 6.09375C162.344 7.375 162.188 8.78125 162.188 10.3125V12.7031C162.188 12.8594 162.266 12.9375 162.422 12.9375H167.625C167.781 12.9375 167.859 13.0469 167.859 13.2656C167.859 13.7656 167.672 14.3906 167.297 15.1406H162.469C162.281 15.1406 162.188 15.2344 162.188 15.4219V26.25C162.188 27.9375 162.328 29.3281 162.609 30.4219C162.672 30.5469 162.875 30.6875 163.219 30.8438C163.562 31 163.938 31.125 164.344 31.2188C164.75 31.3125 165.047 31.3594 165.234 31.3594C165.328 31.3594 165.391 31.5469 165.422 31.9219C165.453 32.2969 165.438 32.5625 165.375 32.7188L160.359 32.4844L155.438 32.7188ZM180.141 32.9062C178.266 32.9062 176.547 32.4375 174.984 31.5C173.422 30.5625 172.172 29.2969 171.234 27.7031C170.328 26.1094 169.875 24.3594 169.875 22.4531C169.875 20.5156 170.312 18.7656 171.188 17.2031C172.094 15.6406 173.312 14.4062 174.844 13.5C176.375 12.5625 178.109 12.0938 180.047 12.0938C181.922 12.0938 183.625 12.5625 185.156 13.5C186.719 14.4375 187.953 15.6875 188.859 17.25C189.797 18.8125 190.266 20.5469 190.266 22.4531C190.266 24.3594 189.812 26.1094 188.906 27.7031C188 29.2969 186.781 30.5625 185.25 31.5C183.75 32.4375 182.047 32.9062 180.141 32.9062ZM180.562 31.0781C181.688 31.0781 182.672 30.7188 183.516 30C184.359 29.2812 185.016 28.3125 185.484 27.0938C185.984 25.875 186.234 24.5469 186.234 23.1094C186.234 21.4219 185.922 19.8906 185.297 18.5156C184.672 17.1094 183.844 16 182.812 15.1875C181.812 14.3438 180.719 13.9219 179.531 13.9219C178.438 13.9219 177.453 14.2812 176.578 15C175.734 15.6875 175.078 16.625 174.609 17.8125C174.141 18.9688 173.906 20.2812 173.906 21.75C173.906 23.4375 174.203 25 174.797 26.4375C175.422 27.8438 176.234 28.9688 177.234 29.8125C178.266 30.6562 179.375 31.0781 180.562 31.0781ZM192.938 32.7188C192.812 32.5938 192.75 32.3281 192.75 31.9219C192.75 31.5469 192.812 31.3594 192.938 31.3594C193.188 31.3594 193.531 31.3125 193.969 31.2188C194.406 31.125 194.812 31 195.188 30.8438C195.562 30.6875 195.766 30.5469 195.797 30.4219C195.922 29.9844 196 29.4844 196.031 28.9219C196.094 28.3594 196.125 27.7656 196.125 27.1406V6.84375C196.125 5.78125 196.031 4.78125 195.844 3.84375C195.719 3.34375 194.922 3.09375 193.453 3.09375H193.031C192.844 3.09375 192.75 2.92188 192.75 2.57812C192.75 2.07813 192.844 1.82812 193.031 1.82812C194.906 1.60938 196.297 1.35938 197.203 1.07812C198.109 0.796875 198.734 0.546875 199.078 0.328125L199.547 0.046875H199.641C199.766 0.046875 199.891 0.140625 200.016 0.328125C200.141 0.484375 200.219 0.640625 200.25 0.796875C199.906 1.82812 199.734 3.1875 199.734 4.875V26.25C199.734 27.1562 199.766 27.9531 199.828 28.6406C199.891 29.3281 199.984 29.9219 200.109 30.4219C200.172 30.5469 200.391 30.6875 200.766 30.8438C201.141 31 201.547 31.125 201.984 31.2188C202.422 31.3125 202.734 31.3594 202.922 31.3594C203.016 31.3594 203.078 31.5469 203.109 31.9219C203.141 32.2969 203.125 32.5625 203.062 32.7188L198.047 32.4844L192.938 32.7188ZM205.5 32.7188C205.375 32.5938 205.312 32.3281 205.312 31.9219C205.312 31.5469 205.375 31.3594 205.5 31.3594C205.75 31.3594 206.094 31.3125 206.531 31.2188C206.969 31.125 207.375 31 207.75 30.8438C208.125 30.6875 208.328 30.5469 208.359 30.4219C208.484 29.9844 208.562 29.4844 208.594 28.9219C208.656 28.3594 208.688 27.7656 208.688 27.1406V18.2812C208.688 17.0938 208.469 16.25 208.031 15.75C207.719 15.3438 207.344 15.0938 206.906 15C206.469 14.875 206.094 14.8125 205.781 14.8125C205.469 14.7812 205.312 14.7344 205.312 14.6719C205.312 13.9219 205.406 13.5312 205.594 13.5C207.25 13.25 208.516 13.0469 209.391 12.8906C210.266 12.7031 211.047 12.5312 211.734 12.375L212.297 12.2344C212.422 12.2031 212.5 12.3281 212.531 12.6094C212.562 12.8906 212.562 13.0938 212.531 13.2188C212.469 13.8438 212.406 14.4375 212.344 15C212.312 15.5625 212.297 16.0938 212.297 16.5938V26.25C212.297 27.1562 212.328 27.9531 212.391 28.6406C212.453 29.3281 212.547 29.9219 212.672 30.4219C212.734 30.5469 212.953 30.6875 213.328 30.8438C213.703 31 214.109 31.125 214.547 31.2188C214.984 31.3125 215.297 31.3594 215.484 31.3594C215.578 31.3594 215.641 31.5469 215.672 31.9219C215.703 32.2969 215.688 32.5625 215.625 32.7188L210.609 32.4844L205.5 32.7188ZM210.141 7.125C209.516 7.125 208.969 6.89062 208.5 6.42188C208.031 5.95312 207.797 5.40625 207.797 4.78125C207.797 4.125 208.031 3.57812 208.5 3.14062C208.969 2.67188 209.516 2.4375 210.141 2.4375C210.797 2.4375 211.344 2.67188 211.781 3.14062C212.25 3.57812 212.484 4.125 212.484 4.78125C212.484 5.40625 212.25 5.95312 211.781 6.42188C211.344 6.89062 210.797 7.125 210.141 7.125ZM229.031 32.9062C227.156 32.9062 225.438 32.4375 223.875 31.5C222.312 30.5625 221.062 29.2969 220.125 27.7031C219.219 26.1094 218.766 24.3594 218.766 22.4531C218.766 20.5156 219.203 18.7656 220.078 17.2031C220.984 15.6406 222.203 14.4062 223.734 13.5C225.266 12.5625 227 12.0938 228.938 12.0938C230.812 12.0938 232.516 12.5625 234.047 13.5C235.609 14.4375 236.844 15.6875 237.75 17.25C238.688 18.8125 239.156 20.5469 239.156 22.4531C239.156 24.3594 238.703 26.1094 237.797 27.7031C236.891 29.2969 235.672 30.5625 234.141 31.5C232.641 32.4375 230.938 32.9062 229.031 32.9062ZM229.453 31.0781C230.578 31.0781 231.562 30.7188 232.406 30C233.25 29.2812 233.906 28.3125 234.375 27.0938C234.875 25.875 235.125 24.5469 235.125 23.1094C235.125 21.4219 234.812 19.8906 234.188 18.5156C233.562 17.1094 232.734 16 231.703 15.1875C230.703 14.3438 229.609 13.9219 228.422 13.9219C227.328 13.9219 226.344 14.2812 225.469 15C224.625 15.6875 223.969 16.625 223.5 17.8125C223.031 18.9688 222.797 20.2812 222.797 21.75C222.797 23.4375 223.094 25 223.688 26.4375C224.312 27.8438 225.125 28.9688 226.125 29.8125C227.156 30.6562 228.266 31.0781 229.453 31.0781Z" fill="#896978"/>
</svg>
