<svg width="100" height="100" viewBox="0 0 100 100" fill="none" xmlns="http://www.w3.org/2000/svg">
<path d="M17.1875 70.3125C17.1875 75.4805 20.7031 79.6875 25 79.6875C25.9656 79.6724 26.9179 79.4601 27.7985 79.0638C28.6791 78.6675 29.4694 78.0955 30.1211 77.3828C30.4081 77.0834 30.8022 76.9103 31.2169 76.9015C31.6315 76.8927 32.0326 77.049 32.332 77.3359C32.6314 77.6229 32.8046 78.0171 32.8134 78.4317C32.8222 78.8463 32.6659 79.2475 32.3789 79.5469C31.4355 80.5641 30.2946 81.3783 29.0259 81.9398C27.7572 82.5013 26.3873 82.7982 25 82.8125C18.9688 82.8125 14.0625 77.2031 14.0625 70.3125C14.0625 63.4219 18.9688 57.8125 25 57.8125C26.3873 57.8268 27.7572 58.1237 29.0259 58.6852C30.2946 59.2467 31.4355 60.0609 32.3789 61.0781C32.6659 61.3775 32.8222 61.7787 32.8134 62.1933C32.8046 62.6079 32.6314 63.0021 32.332 63.2891C32.0326 63.576 31.6315 63.7323 31.2169 63.7235C30.8022 63.7147 30.4081 63.5416 30.1211 63.2422C29.4694 62.5295 28.6791 61.9575 27.7985 61.5612C26.9179 61.1649 25.9656 60.9526 25 60.9375C20.7031 60.9375 17.1875 65.1445 17.1875 70.3125ZM49.4102 68.418C45.2969 67.2461 43.5195 66.5 43.7734 64.4805C43.8096 63.9745 43.9602 63.4834 44.214 63.0443C44.4678 62.6051 44.818 62.2293 45.2383 61.9453C47.6836 60.293 52.5703 61.0703 54.25 61.5117C54.6448 61.5979 55.0577 61.5277 55.4019 61.316C55.7461 61.1042 55.9948 60.7673 56.096 60.3761C56.1971 59.9848 56.1426 59.5696 55.9441 59.2176C55.7456 58.8656 55.4184 58.6042 55.0313 58.4883C53.6888 58.1604 52.3203 57.95 50.9414 57.8594C47.7695 57.6484 45.2617 58.1523 43.4805 59.3516C42.6916 59.8862 42.03 60.5877 41.5426 61.4066C41.0552 62.2255 40.7539 63.1415 40.6602 64.0898C40.043 68.9688 44.7461 70.3398 48.5273 71.4219C52.9219 72.6914 54.9609 73.5664 54.6328 76.0859C54.5947 76.612 54.4379 77.1226 54.174 77.5793C53.9101 78.036 53.5461 78.4269 53.1094 78.7227C50.6563 80.3516 45.8398 79.5234 44.1914 79.0664C43.9913 79.0025 43.7804 78.9795 43.5712 78.999C43.3621 79.0184 43.159 79.0798 42.9741 79.1795C42.7892 79.2793 42.6264 79.4152 42.4952 79.5793C42.3641 79.7434 42.2674 79.9322 42.2109 80.1346C42.1544 80.3369 42.1393 80.5485 42.1665 80.7568C42.1936 80.9651 42.2625 81.1658 42.369 81.3468C42.4755 81.5279 42.6173 81.6856 42.7862 81.8106C42.955 81.9356 43.1473 82.0252 43.3516 82.0742C45.164 82.5497 47.0286 82.7977 48.9023 82.8125C50.9258 82.8125 53.1328 82.4766 54.8477 81.3398C55.6581 80.7949 56.3384 80.078 56.8401 79.2401C57.3418 78.4022 57.6525 77.4639 57.75 76.4922C58.4531 71.0313 53.2266 69.5312 49.4102 68.418ZM74.4102 68.418C70.2969 67.2461 68.5195 66.5 68.7734 64.4805C68.8096 63.9745 68.9602 63.4834 69.214 63.0443C69.4678 62.6051 69.818 62.2293 70.2383 61.9453C72.6836 60.293 77.5703 61.0703 79.25 61.5117C79.6448 61.5979 80.0577 61.5277 80.4019 61.316C80.7461 61.1042 80.9948 60.7673 81.096 60.3761C81.1971 59.9848 81.1426 59.5696 80.9441 59.2176C80.7456 58.8656 80.4184 58.6042 80.0313 58.4883C78.6874 58.1608 77.3177 57.9504 75.9375 57.8594C72.7695 57.6484 70.2578 58.1523 68.4805 59.3516C67.6916 59.8862 67.03 60.5877 66.5426 61.4066C66.0552 62.2255 65.7539 63.1415 65.6602 64.0898C65.0391 68.9688 69.7461 70.3398 73.5273 71.4219C77.9219 72.6914 79.957 73.5664 79.6328 76.0859C79.5947 76.612 79.4379 77.1226 79.174 77.5793C78.9101 78.036 78.5461 78.4269 78.1094 78.7227C75.6563 80.3516 70.8398 79.5234 69.1914 79.0664C68.9913 79.0025 68.7804 78.9795 68.5712 78.999C68.3621 79.0184 68.159 79.0798 67.9741 79.1795C67.7892 79.2793 67.6264 79.4152 67.4952 79.5793C67.3641 79.7434 67.2674 79.9322 67.2109 80.1346C67.1544 80.3369 67.1393 80.5485 67.1665 80.7568C67.1936 80.9651 67.2625 81.1658 67.369 81.3468C67.4755 81.5279 67.6173 81.6856 67.7862 81.8106C67.955 81.9356 68.1473 82.0252 68.3516 82.0742C70.1639 82.5501 72.0286 82.7981 73.9023 82.8125C75.9219 82.8125 78.1328 82.4766 79.8477 81.3398C80.6581 80.7949 81.3384 80.078 81.8401 79.2401C82.3418 78.4022 82.6525 77.4639 82.75 76.4922C83.4492 71.0313 78.2266 69.5312 74.4102 68.418ZM79.6875 35.9375H59.375C58.9606 35.9375 58.5632 35.7729 58.2701 35.4799C57.9771 35.1868 57.8125 34.7894 57.8125 34.375V14.0625H21.875C21.4606 14.0625 21.0632 14.2271 20.7701 14.5201C20.4771 14.8132 20.3125 15.2106 20.3125 15.625V43.75C20.3125 44.1644 20.1479 44.5618 19.8549 44.8549C19.5618 45.1479 19.1644 45.3125 18.75 45.3125C18.3356 45.3125 17.9382 45.1479 17.6451 44.8549C17.3521 44.5618 17.1875 44.1644 17.1875 43.75V15.625C17.1875 14.3818 17.6814 13.1895 18.5604 12.3104C19.4395 11.4314 20.6318 10.9375 21.875 10.9375H59.375C59.5803 10.9373 59.7835 10.9776 59.9732 11.056C60.1629 11.1345 60.3353 11.2495 60.4805 11.3945L82.3555 33.2695C82.5005 33.4147 82.6155 33.5871 82.694 33.7768C82.7724 33.9665 82.8127 34.1697 82.8125 34.375V43.75C82.8125 44.1644 82.6479 44.5618 82.3549 44.8549C82.0618 45.1479 81.6644 45.3125 81.25 45.3125C80.8356 45.3125 80.4382 45.1479 80.1451 44.8549C79.8521 44.5618 79.6875 44.1644 79.6875 43.75V35.9375ZM77.4805 32.8125L60.9375 16.2695V32.8125H77.4805Z" fill="black"/>
</svg>
