<svg width="100" height="100" viewBox="0 0 100 100" fill="none" xmlns="http://www.w3.org/2000/svg">
<path d="M39.6875 55.3125C40.2567 54.7232 40.5717 53.9338 40.5646 53.1144C40.5575 52.295 40.2288 51.5113 39.6494 50.9318C39.07 50.3524 38.2862 50.0238 37.4668 50.0167C36.6475 50.0096 35.8581 50.3245 35.2687 50.8938L25.8937 60.2688C25.3079 60.8548 24.9788 61.6495 24.9788 62.4782C24.9788 63.3068 25.3079 64.1015 25.8937 64.6875L35.2687 74.0625C35.8581 74.6318 36.6475 74.9468 37.4668 74.9396C38.2862 74.9325 39.07 74.6039 39.6494 74.0245C40.2288 73.4451 40.5575 72.6613 40.5646 71.8419C40.5717 71.0225 40.2567 70.2332 39.6875 69.6438L32.5 62.4563L39.6875 55.2688V55.3125ZM53.75 43.8125C54.562 43.9754 55.2761 44.454 55.7354 45.143C56.1948 45.8321 56.3619 46.6754 56.2 47.4875L49.95 78.7375C49.7638 79.526 49.2787 80.2115 48.597 80.6492C47.9152 81.0869 47.0901 81.2428 46.2957 81.0839C45.5012 80.925 44.7996 80.4638 44.3386 79.7975C43.8777 79.1312 43.6935 78.312 43.825 77.5125L50.075 46.2625C50.2379 45.4505 50.7164 44.7364 51.4055 44.2771C52.0946 43.8177 52.9378 43.6506 53.75 43.8125ZM74.375 60.3125L65 50.9375C64.4106 50.3683 63.6212 50.0533 62.8018 50.0604C61.9825 50.0675 61.1987 50.3962 60.6193 50.9756C60.0399 51.555 59.7112 52.3388 59.7041 53.1582C59.697 53.9775 60.012 54.7669 60.5812 55.3563L67.7687 62.5438L60.5812 69.7313C60.012 70.3207 59.697 71.11 59.7041 71.9294C59.7112 72.7488 60.0399 73.5326 60.6193 74.112C61.1987 74.6914 61.9825 75.02 62.8018 75.0271C63.6212 75.0343 64.4106 74.7193 65 74.15L74.375 64.775C74.9608 64.189 75.2899 63.3943 75.2899 62.5657C75.2899 61.737 74.9608 60.9423 74.375 60.3563V60.3125Z" fill="black"/>
<path fill-rule="evenodd" clip-rule="evenodd" d="M12.5 18.75C12.5 11.875 18.0937 6.25 25 6.25H59.375C60.2063 6.25 61 6.58125 61.5875 7.1625L86.5875 32.1625C86.8775 32.4532 87.1074 32.7983 87.2639 33.1779C87.4205 33.5576 87.5007 33.9643 87.5 34.375V81.25C87.5 88.125 81.9063 93.75 75 93.75H25C18.125 93.75 12.5 88.1563 12.5 81.25V18.75ZM25 12.5C23.3424 12.5 21.7527 13.1585 20.5806 14.3306C19.4085 15.5027 18.75 17.0924 18.75 18.75V81.25C18.75 82.9076 19.4085 84.4973 20.5806 85.6694C21.7527 86.8415 23.3424 87.5 25 87.5H75C76.6576 87.5 78.2473 86.8415 79.4194 85.6694C80.5915 84.4973 81.25 82.9076 81.25 81.25V37.5H59.375C58.5462 37.5 57.7513 37.1708 57.1653 36.5847C56.5792 35.9987 56.25 35.2038 56.25 34.375V12.5H25ZM62.5 16.9188L76.8125 31.2313H62.5V16.9188Z" fill="black"/>
</svg>
