<svg width="100" height="100" viewBox="0 0 100 100" fill="none" xmlns="http://www.w3.org/2000/svg">
<path d="M0 30.6416L8.80417 69.3583H12.1417C13.6105 69.3583 15.0348 68.8544 16.1769 67.9308C17.319 67.0071 18.1096 65.7196 18.4167 64.2833L24.0458 37.8666C24.0777 37.7056 24.1645 37.5606 24.2914 37.4565C24.4184 37.3524 24.5775 37.2956 24.7417 37.2958C25.075 37.2958 25.3667 37.5375 25.4375 37.8666L31.0708 64.2833C31.3779 65.7196 32.1685 67.0071 33.3106 67.9308C34.4527 68.8544 35.877 69.3583 37.3458 69.3583H40.7L49.5042 30.6416H47.15C44.5667 30.6416 42.3208 32.4333 41.75 34.9541L36.5 58.0583L31.8917 36.4916C31.6806 35.5159 31.2725 34.5935 30.6924 33.781C30.1123 32.9686 29.3725 32.2831 28.5182 31.7666C27.6638 31.2501 26.7131 30.9135 25.7241 30.7774C24.7351 30.6412 23.7288 30.7085 22.7667 30.975C20.1042 31.7083 18.1292 33.9583 17.5542 36.6624L12.9958 58.0249L7.74583 34.9541C7.46736 33.7299 6.78143 32.6365 5.80039 31.853C4.81934 31.0696 3.60133 30.6424 2.34583 30.6416H0ZM58.3 30.6416C57.7798 30.6411 57.2647 30.7431 56.7839 30.9417C56.3032 31.1404 55.8663 31.4319 55.4983 31.7995C55.1303 32.1671 54.8384 32.6037 54.6392 33.0842C54.44 33.5647 54.3375 34.0798 54.3375 34.5999V69.3583H56.9833C57.5035 69.3588 58.0187 69.2568 58.4994 69.0582C58.9801 68.8595 59.417 68.568 59.785 68.2004C60.153 67.8328 60.4449 67.3962 60.6441 66.9157C60.8433 66.4352 60.9458 65.9201 60.9458 65.4V30.6375L58.3 30.6416ZM65.7083 30.6416L78.8667 50.0583L65.7833 69.3583H71.3042C72.8375 69.3583 74.2708 68.6041 75.1292 67.3333L82.4458 56.5416C82.4919 56.4754 82.5533 56.4214 82.6247 56.384C82.6962 56.3467 82.7756 56.3272 82.8562 56.3272C82.9369 56.3272 83.0163 56.3467 83.0878 56.384C83.1592 56.4214 83.2206 56.4754 83.2667 56.5416L90.575 67.3333C91.4333 68.6041 92.8667 69.3583 94.4 69.3583H99.925L86.8417 50.0583L100 30.6416H94.475C92.9417 30.6416 91.5083 31.3958 90.65 32.6666L83.2667 43.5708C83.2206 43.637 83.1592 43.691 83.0878 43.7284C83.0163 43.7657 82.9369 43.7852 82.8562 43.7852C82.7756 43.7852 82.6962 43.7657 82.6247 43.7284C82.5533 43.691 82.4919 43.637 82.4458 43.5708L75.0583 32.6666C74.6343 32.0427 74.064 31.5321 73.3973 31.1791C72.7306 30.8261 71.9877 30.6416 71.2333 30.6416H65.7083Z" fill="black"/>
</svg>
