<svg width="100" height="100" viewBox="0 0 100 100" fill="none" xmlns="http://www.w3.org/2000/svg">
<path d="M59.1562 54.0625L53.053 9.375H52.5968C41.942 9.3931 31.7277 13.6286 24.1866 21.1556C16.6455 28.6827 12.391 38.889 12.353 49.5438V50L59.1562 54.0625Z" fill="#ED6C47"/>
<path d="M53.5095 9.375H53.0532V50L73.4001 58.125L93.7501 50V49.5438C93.7121 38.8896 89.458 28.6837 81.9176 21.1567C74.3772 13.6298 64.1637 9.39393 53.5095 9.375Z" fill="#FF8F6B"/>
<path d="M93.7499 50V50.4469C93.7103 61.103 89.4547 71.3104 81.9129 78.8387C74.371 86.3671 64.1561 90.6044 53.4999 90.625H52.603C41.9473 90.6028 31.7334 86.3649 24.1919 78.8369C16.6504 71.3089 12.3943 61.1025 12.353 50.4469V50H93.7499Z" fill="#D35230"/>
<path opacity="0.1" d="M55.0874 29.3406V72.6875C55.0818 73.425 54.8588 74.1445 54.4464 74.7559C54.034 75.3673 53.4504 75.8435 52.7687 76.125C52.3226 76.3094 51.8451 76.406 51.3624 76.4094H21.9593C21.3886 75.7552 20.8454 75.0775 20.3312 74.3781C15.1487 67.4776 12.3488 59.0799 12.3531 50.45V49.5562C12.3423 41.7715 14.6212 34.1556 18.9062 27.6563C19.3511 26.9585 19.8265 26.2808 20.3312 25.625H51.3624C52.3467 25.6315 53.289 26.0248 53.9859 26.7199C54.6828 27.4151 55.0784 28.3563 55.0874 29.3406Z" fill="black"/>
<path opacity="0.2" d="M53.0531 31.375V74.7219C53.0489 75.2024 52.9523 75.6777 52.7687 76.1219C52.4867 76.803 52.0103 77.3859 51.3989 77.7977C50.7875 78.2096 50.0683 78.4321 49.3312 78.4375H23.8124C23.1687 77.7833 22.551 77.1063 21.9593 76.4062C21.3886 75.7521 20.8454 75.0744 20.3312 74.375C15.1487 67.4744 12.3488 59.0768 12.3531 50.4469V49.5531C12.3429 41.7695 14.6218 34.1547 18.9062 27.6562H49.3281C50.3129 27.6628 51.2556 28.0565 51.9526 28.7523C52.6496 29.4481 53.0449 30.3902 53.0531 31.375Z" fill="black"/>
<path opacity="0.2" d="M53.0531 31.375V70.6594C53.0441 71.6437 52.6484 72.5849 51.9515 73.2801C51.2546 73.9752 50.3124 74.3685 49.3281 74.375H20.3312C15.1487 67.4744 12.3488 59.0768 12.3531 50.4469V49.5531C12.3429 41.7695 14.6218 34.1547 18.9062 27.6562H49.3281C50.3129 27.6628 51.2556 28.0565 51.9526 28.7523C52.6496 29.4481 53.0449 30.3902 53.0531 31.375Z" fill="black"/>
<path opacity="0.2" d="M51.0187 31.375V70.6594C51.0097 71.6437 50.614 72.5849 49.9171 73.2801C49.2203 73.9752 48.278 74.3685 47.2937 74.375H20.3312C15.1487 67.4744 12.3488 59.0768 12.3531 50.4469V49.5531C12.3429 41.7695 14.6218 34.1547 18.9062 27.6562H47.2937C48.2785 27.6628 49.2213 28.0565 49.9182 28.7523C50.6152 29.4481 51.0105 30.3902 51.0187 31.375Z" fill="black"/>
<path d="M9.98125 27.6563H47.2875C48.2757 27.6554 49.2238 28.047 49.9235 28.7449C50.6231 29.4428 51.0171 30.3899 51.0187 31.3781V68.6219C51.0171 69.6101 50.6231 70.5572 49.9235 71.2551C49.2238 71.953 48.2757 72.3446 47.2875 72.3438H9.98125C9.49158 72.3454 9.00641 72.2503 8.55359 72.064C8.10076 71.8777 7.68919 71.6037 7.34251 71.2579C6.99582 70.9121 6.72085 70.5012 6.53337 70.0489C6.34588 69.5965 6.24959 69.1116 6.25 68.6219V31.3781C6.24959 30.8885 6.34588 30.4035 6.53337 29.9512C6.72085 29.4988 6.99582 29.088 7.34251 28.7421C7.68919 28.3963 8.10076 28.1224 8.55359 27.936C9.00641 27.7497 9.49158 27.6546 9.98125 27.6563Z" fill="url(#paint0_linear_2046_202)"/>
<path d="M29.0407 37.5875C31.4688 37.4277 33.8753 38.1317 35.8344 39.575C36.6393 40.2915 37.2704 41.182 37.6798 42.1788C38.0891 43.1757 38.266 44.2527 38.1969 45.3281C38.2234 46.8429 37.8192 48.334 37.0313 49.6281C36.232 50.8999 35.083 51.9144 33.7219 52.55C32.1659 53.2724 30.4652 53.6294 28.75 53.5937H24.0219V62.3437H19.1907V37.5875H29.0407ZM24.0188 49.8125H28.1782C29.4968 49.9061 30.8044 49.5162 31.8563 48.7156C32.2862 48.3055 32.6209 47.8062 32.8369 47.2528C33.0529 46.6994 33.1448 46.1053 33.1063 45.5125C33.1063 42.7854 31.5178 41.4208 28.3407 41.4187H24.0188V49.8125Z" fill="white"/>
<defs>
<linearGradient id="paint0_linear_2046_202" x1="14.0438" y1="24.7313" x2="43.225" y2="75.2688" gradientUnits="userSpaceOnUse">
<stop stop-color="#CA4C28"/>
<stop offset="0.5" stop-color="#C5401E"/>
<stop offset="1" stop-color="#B62F14"/>
</linearGradient>
</defs>
</svg>
