<svg width="100" height="100" viewBox="0 0 100 100" fill="none" xmlns="http://www.w3.org/2000/svg">
<path d="M90.0187 9.37502H30.3281C29.8387 9.37379 29.3539 9.46917 28.9014 9.6557C28.4489 9.84222 28.0377 10.1162 27.6914 10.462C27.345 10.8078 27.0703 11.2185 26.883 11.6707C26.6958 12.1228 26.5996 12.6075 26.6 13.0969V29.6875L61.1906 39.8438L93.75 29.6875V13.0969C93.7504 12.6072 93.6541 12.1223 93.4666 11.6699C93.2791 11.2176 93.0042 10.8067 92.6575 10.4609C92.3108 10.1151 91.8992 9.84114 91.4464 9.65479C90.9936 9.46845 90.5084 9.37337 90.0187 9.37502Z" fill="#41A5EE"/>
<path d="M93.75 29.6875H26.6V50L61.1906 56.0938L93.75 50V29.6875Z" fill="#2B7CD3"/>
<path d="M26.6 50V70.3125L59.1562 74.375L93.75 70.3125V50H26.6Z" fill="#185ABD"/>
<path d="M30.3281 90.625H90.0156C90.5055 90.6271 90.991 90.5323 91.4442 90.3461C91.8974 90.16 92.3094 89.8861 92.6564 89.5402C93.0034 89.1944 93.2786 88.7834 93.4663 88.3308C93.654 87.8782 93.7504 87.3931 93.75 86.9031V70.3125H26.6V86.9031C26.5996 87.3925 26.6958 87.8772 26.883 88.3294C27.0703 88.7815 27.345 89.1922 27.6914 89.538C28.0377 89.8838 28.4489 90.1578 28.9014 90.3443C29.3539 90.5309 29.8387 90.6262 30.3281 90.625Z" fill="#103F91"/>
<path opacity="0.1" d="M51.3562 25.625H26.6V76.4062H51.3562C52.3427 76.4013 53.2875 76.0079 53.9859 75.3113C54.6843 74.6146 55.0801 73.6708 55.0875 72.6844V29.3469C55.0801 28.3604 54.6843 27.4166 53.9859 26.72C53.2875 26.0233 52.3427 25.6299 51.3562 25.625Z" fill="black"/>
<path opacity="0.2" d="M49.3218 27.6562H26.6V78.4375H49.3218C50.3083 78.4326 51.2531 78.0392 51.9515 77.3425C52.6499 76.6459 53.0457 75.7021 53.0531 74.7156V31.3781C53.0457 30.3917 52.6499 29.4479 51.9515 28.7512C51.2531 28.0546 50.3083 27.6612 49.3218 27.6562Z" fill="black"/>
<path opacity="0.2" d="M49.3218 27.6562H26.6V74.375H49.3218C50.3083 74.3701 51.2531 73.9767 51.9515 73.28C52.6499 72.5834 53.0457 71.6396 53.0531 70.6531V31.3781C53.0457 30.3917 52.6499 29.4479 51.9515 28.7512C51.2531 28.0546 50.3083 27.6612 49.3218 27.6562Z" fill="black"/>
<path opacity="0.2" d="M47.2875 27.6562H26.6V74.375H47.2875C48.2739 74.3701 49.2187 73.9767 49.9171 73.28C50.6156 72.5834 51.0113 71.6396 51.0187 70.6531V31.3781C51.0113 30.3917 50.6156 29.4479 49.9171 28.7512C49.2187 28.0546 48.2739 27.6612 47.2875 27.6562Z" fill="black"/>
<path d="M9.98125 27.6563H47.2875C48.2757 27.6554 49.2238 28.047 49.9235 28.7449C50.6231 29.4428 51.0171 30.3899 51.0187 31.3781V68.6219C51.0171 69.6101 50.6231 70.5572 49.9235 71.2551C49.2238 71.953 48.2757 72.3446 47.2875 72.3438H9.98125C9.49158 72.3454 9.00641 72.2503 8.55359 72.064C8.10076 71.8777 7.68919 71.6037 7.34251 71.2579C6.99582 70.9121 6.72085 70.5012 6.53337 70.0489C6.34588 69.5965 6.24959 69.1116 6.25 68.6219V31.3781C6.24959 30.8885 6.34588 30.4035 6.53337 29.9512C6.72085 29.4988 6.99582 29.088 7.34251 28.7421C7.68919 28.3963 8.10076 28.1224 8.55359 27.936C9.00641 27.7497 9.49158 27.6546 9.98125 27.6563Z" fill="url(#paint0_linear_2045_190)"/>
<path d="M21.5625 56.2125C21.6354 56.7875 21.6833 57.2885 21.7063 57.7156H21.7937C21.825 57.3094 21.8927 56.8198 21.9969 56.2469C22.1531 55.3875 22.1906 55.1906 22.275 54.7938L26.1969 37.8969H31.2719L35.3344 54.5406C35.569 55.5705 35.7381 56.6143 35.8406 57.6656H35.9094C35.9873 56.6423 36.1282 55.6248 36.3313 54.6188L39.5781 37.875H44.1937L38.4938 62.0875H33.0969L29.2313 46.0687C29.1187 45.6062 28.9917 45.0042 28.85 44.2625C28.7083 43.5208 28.6208 42.9792 28.5875 42.6375H28.5219C28.4781 43.0313 28.3906 43.6156 28.2594 44.3906C28.1281 45.1656 28.024 45.7406 27.9469 46.1156L24.3125 62.0969H18.825L13.0938 37.8969H17.7812L21.3156 54.8281C21.4187 55.2856 21.501 55.7476 21.5625 56.2125Z" fill="white"/>
<defs>
<linearGradient id="paint0_linear_2045_190" x1="14.0438" y1="24.7313" x2="43.225" y2="75.2688" gradientUnits="userSpaceOnUse">
<stop stop-color="#2368C4"/>
<stop offset="0.5" stop-color="#1A5DBE"/>
<stop offset="1" stop-color="#1146AC"/>
</linearGradient>
</defs>
</svg>
