<svg width="100" height="100" viewBox="0 0 100 100" fill="none" xmlns="http://www.w3.org/2000/svg">
<path d="M51.9406 7.2688H57.8781V15.2282C67.1781 15.5844 76.5906 14.4719 85.8219 15.8532C86.1344 16.9063 86.4969 17.95 86.8469 18.9782C89.1906 19.3969 92.9688 19.1063 93.3375 22.2875C93.8534 28.1183 93.8032 33.9853 93.1875 39.8063C93.9367 45.9981 93.8769 52.2612 93.0094 58.4375C93.8722 64.1487 93.9773 69.9488 93.3219 75.6875C92.8938 78.7782 89.2281 78.5594 86.9125 78.9969C86.7973 80.666 86.3978 82.3031 85.7312 83.8375C83.8454 84.6653 81.7766 84.9884 79.7281 84.775C72.4437 84.7063 65.1594 84.7344 57.8844 84.7344V92.6938H51.6625C36.5625 89.9594 21.3938 87.425 6.25 84.7813V15.2375C21.4844 12.5844 36.7188 9.9813 51.9406 7.2688Z" fill="#733781"/>
<path d="M57.8843 18.1907H83.7312V22.1469C86.0145 22.1469 88.3062 22.1969 90.6062 22.2969C90.7343 27.525 90.7843 32.75 90.5656 37.9782C88.2906 38.0563 86.0031 38.0969 83.7374 38.1063V81.8094H57.8906V73.8407H76.7718V69.8844H57.8906V64.8844H76.7718V60.9282H57.8906V55.9375H76.7718V51.9813H57.8906V46.9813H76.7625V43.025H57.8812V38.025H76.7625V34.0688H57.8812V29.0688H76.7625V25.1125H57.8812V18.1907H57.8843ZM36.9562 33.3344C38.9354 33.2219 40.9229 33.1178 42.9187 33.0219V65.9375C40.7718 65.8469 38.6468 65.7282 36.5187 65.625C32.5625 58.0219 28.2812 50.5907 24.4562 42.9188C24.675 50.2719 24.5468 57.6376 24.5656 64.9907C22.7562 64.8719 20.9687 64.7625 19.1687 64.6532C19.1979 54.5573 19.1979 44.4532 19.1687 34.3407L25.3093 34.0282C29.1937 41.1438 33.1406 48.2282 36.9156 55.4125C36.9968 48.0532 36.9156 40.6875 36.9562 33.3344Z" fill="white"/>
<path d="M86.6937 41.0062C87.9854 41.0583 89.2802 41.1146 90.5781 41.175C90.7691 46.3943 90.7586 51.619 90.5469 56.8375C89.2552 56.9 87.9698 56.9562 86.6906 57.0062C86.6823 51.6687 86.6833 46.3354 86.6937 41.0062ZM86.6937 59.8781C87.9854 59.9385 89.2875 60.0052 90.6 60.0781C90.7457 65.274 90.7457 70.4729 90.6 75.6687L86.6937 75.9062C86.6833 70.5604 86.6833 65.2177 86.6937 59.8781Z" fill="white"/>
</svg>
