<svg width="100" height="100" viewBox="0 0 100 100" fill="none" xmlns="http://www.w3.org/2000/svg">
<path d="M61.1907 47.9688L26.6001 41.875V86.9031C26.5997 87.3925 26.6959 87.8772 26.8832 88.3294C27.0705 88.7815 27.3451 89.1922 27.6915 89.538C28.0379 89.8838 28.4491 90.1578 28.9015 90.3443C29.354 90.5309 29.8388 90.6262 30.3282 90.625H90.0157C90.5057 90.6271 90.9912 90.5323 91.4444 90.3461C91.8975 90.16 92.3095 89.8861 92.6565 89.5402C93.0035 89.1944 93.2788 88.7834 93.4664 88.3308C93.6541 87.8782 93.7505 87.3931 93.7501 86.9031V70.3125L61.1907 47.9688Z" fill="#185C37"/>
<path d="M61.1907 9.37501H30.3282C29.8388 9.37378 29.354 9.46916 28.9015 9.65569C28.4491 9.84221 28.0379 10.1162 27.6915 10.462C27.3451 10.8078 27.0705 11.2185 26.8832 11.6707C26.6959 12.1228 26.5997 12.6075 26.6001 13.0969V29.6875L61.1907 50L79.5063 56.0938L93.7501 50V29.6875L61.1907 9.37501Z" fill="#21A366"/>
<path d="M26.6001 29.6875H61.1907V50H26.6001V29.6875Z" fill="#107C41"/>
<path opacity="0.1" d="M51.3563 25.625H26.6001V76.4062H51.3563C52.3428 76.4013 53.2876 76.0079 53.986 75.3113C54.6844 74.6146 55.0802 73.6708 55.0876 72.6844V29.3469C55.0802 28.3604 54.6844 27.4166 53.986 26.72C53.2876 26.0233 52.3428 25.6299 51.3563 25.625Z" fill="black"/>
<path opacity="0.2" d="M49.322 27.6562H26.6001V78.4375H49.322C50.3084 78.4326 51.2532 78.0392 51.9516 77.3425C52.6501 76.6459 53.0458 75.7021 53.0532 74.7156V31.3781C53.0458 30.3917 52.6501 29.4479 51.9516 28.7512C51.2532 28.0546 50.3084 27.6612 49.322 27.6562Z" fill="black"/>
<path opacity="0.2" d="M49.322 27.6562H26.6001V74.375H49.322C50.3084 74.3701 51.2532 73.9767 51.9516 73.28C52.6501 72.5834 53.0458 71.6396 53.0532 70.6531V31.3781C53.0458 30.3917 52.6501 29.4479 51.9516 28.7512C51.2532 28.0546 50.3084 27.6612 49.322 27.6562Z" fill="black"/>
<path opacity="0.2" d="M47.2876 27.6562H26.6001V74.375H47.2876C48.2741 74.3701 49.2188 73.9767 49.9173 73.28C50.6157 72.5834 51.0115 71.6396 51.0188 70.6531V31.3781C51.0115 30.3917 50.6157 29.4479 49.9173 28.7512C49.2188 28.0546 48.2741 27.6612 47.2876 27.6562Z" fill="black"/>
<path d="M9.98125 27.6563H47.2875C48.2757 27.6554 49.2238 28.047 49.9235 28.7449C50.6232 29.4428 51.0171 30.3899 51.0188 31.3781V68.6219C51.0171 69.6101 50.6232 70.5572 49.9235 71.2551C49.2238 71.953 48.2757 72.3446 47.2875 72.3438H9.98125C9.49158 72.3454 9.00641 72.2503 8.55359 72.064C8.10076 71.8777 7.68919 71.6037 7.34251 71.2579C6.99582 70.9121 6.72085 70.5012 6.53337 70.0489C6.34588 69.5965 6.24959 69.1116 6.25 68.6219V31.3781C6.24959 30.8885 6.34588 30.4035 6.53337 29.9512C6.72085 29.4988 6.99582 29.088 7.34251 28.7421C7.68919 28.3963 8.10076 28.1224 8.55359 27.936C9.00641 27.7497 9.49158 27.6546 9.98125 27.6563Z" fill="url(#paint0_linear_2045_178)"/>
<path d="M17.8125 62.1031L25.6594 49.9656L18.4719 37.8969H24.2437L28.1656 45.625C28.5281 46.3562 28.7906 46.9 28.9094 47.2625H28.9625C29.2187 46.6771 29.4896 46.1083 29.775 45.5562L33.9687 37.9093H39.2812L31.9094 49.9094L39.4688 62.1125H33.8156L29.2844 53.6406C29.0746 53.2761 28.8958 52.8945 28.75 52.5H28.675C28.5426 52.8845 28.3664 53.2525 28.15 53.5968L23.4844 62.1031H17.8125Z" fill="white"/>
<path d="M90.0188 9.37502H61.1907V29.6875H93.75V13.0969C93.7505 12.6072 93.6542 12.1223 93.4667 11.6699C93.2792 11.2176 93.0042 10.8067 92.6575 10.4609C92.3109 10.1151 91.8993 9.84114 91.4465 9.65479C90.9936 9.46845 90.5085 9.37337 90.0188 9.37502Z" fill="#33C481"/>
<path d="M61.1907 50H93.75V70.3125H61.1907V50Z" fill="#107C41"/>
<defs>
<linearGradient id="paint0_linear_2045_178" x1="14.0438" y1="24.7313" x2="43.225" y2="75.2688" gradientUnits="userSpaceOnUse">
<stop stop-color="#18884F"/>
<stop offset="0.5" stop-color="#117E43"/>
<stop offset="1" stop-color="#0B6631"/>
</linearGradient>
</defs>
</svg>
