<svg width="62" height="61" viewBox="0 0 62 61" fill="none" xmlns="http://www.w3.org/2000/svg">
<path fill-rule="evenodd" clip-rule="evenodd" d="M11.2745 0C8.28435 0 5.41663 1.1685 3.30224 3.24845C1.18785 5.3284 0 8.14942 0 11.0909V49.9091C0 52.8506 1.18785 55.6716 3.30224 57.7515C5.41663 59.8315 8.28435 61 11.2745 61H50.7355C53.7256 61 56.5934 59.8315 58.7078 57.7515C60.8221 55.6716 62.01 52.8506 62.01 49.9091V11.0909C62.01 8.14942 60.8221 5.3284 58.7078 3.24845C56.5934 1.1685 53.7256 0 50.7355 0H11.2745ZM10.3331 9.70455C10.0246 9.81735 9.74706 9.99947 9.52269 10.2364C9.29833 10.4733 9.13331 10.7585 9.04078 11.0693C8.94826 11.3801 8.93078 11.7078 8.98975 12.0263C9.04871 12.3449 9.18249 12.6455 9.38042 12.9043L25.2042 33.5611L8.53201 51.154L8.40799 51.2955H14.1777L27.7918 36.9355L38.2545 50.5995C38.4973 50.9158 38.8268 51.1572 39.2044 51.2955H51.6684C51.9765 51.1821 52.2534 50.9995 52.4772 50.7623C52.7009 50.5251 52.8653 50.2398 52.9573 49.9291C53.0493 49.6184 53.0662 49.2909 53.0069 48.9726C52.9476 48.6544 52.8135 48.3541 52.6155 48.0957L36.7917 27.4389L53.602 9.70455H47.8238L34.2098 24.0673L23.7414 10.4033C23.499 10.086 23.1694 9.84351 22.7915 9.70455H10.3331ZM40.9999 47.2695L15.308 13.7305H20.9988L46.6879 47.2667L40.9999 47.2695Z" fill="black"/>
</svg>
