<svg width="288" height="139" viewBox="0 0 288 139" fill="none" xmlns="http://www.w3.org/2000/svg">
<path d="M27.904 3.20002C27.904 2.26136 27.4773 1.57869 26.624 1.15202L26.88 0.256023C29.0133 0.42669 31.2533 0.512024 33.6 0.512024C35.9893 0.512024 38.2933 0.341357 40.512 2.28882e-05L40.832 1.60003C38.784 2.24002 36.7147 2.68802 34.624 2.94402L22.08 23.104C22.08 30.2294 22.3573 35.84 22.912 39.936C25.1733 40.1494 27.52 40.5547 29.952 41.152L29.76 42.688C26.6027 42.3467 23.168 42.176 19.456 42.176C15.7867 42.176 12.8213 42.3467 10.56 42.688L10.304 41.088C12.224 40.4907 14.272 40.0427 16.448 39.744C16.9173 36.2454 17.152 31.8294 17.152 26.496V24.832C12.8853 15.7867 10.176 10.112 9.024 7.80803C7.872 5.46136 6.912 3.84002 6.144 2.94402C3.75467 2.64536 1.70667 2.19736 2.38419e-06 1.60003L0.256002 2.28882e-05C2.51734 0.341357 5.568 0.512024 9.408 0.512024C13.2907 0.512024 16.8107 0.341357 19.968 2.28882e-05L20.16 1.53602C17.728 2.13336 15.3813 2.53869 13.12 2.75202C15.1253 8.72536 17.6853 14.6774 20.8 20.608C25.536 11.3494 27.904 5.54669 27.904 3.20002ZM40.251 30.912C40.251 26.4747 41.4457 22.4214 43.835 18.752C46.2243 15.04 49.4243 12.5014 53.435 11.136C56.2937 11.136 59.2803 11.584 62.395 12.48C62.9923 11.584 63.483 10.4534 63.867 9.08802L65.211 9.47202C64.2723 13.312 63.803 20.096 63.803 29.824C63.803 34.176 63.9523 37.5894 64.251 40.064C65.275 40.4054 66.427 40.576 67.707 40.576V41.92C64.9763 42.048 62.0963 42.4534 59.067 43.136L58.619 42.88C59.0883 39.936 59.323 36.608 59.323 32.896L59.067 32.832C57.5737 34.9654 55.803 37.0347 53.755 39.04C51.707 41.0454 49.7657 42.4107 47.931 43.136C45.5843 43.136 43.707 41.8347 42.299 39.232C40.9337 36.6294 40.251 33.856 40.251 30.912ZM45.371 28.032C45.371 30.1227 45.7337 32.2987 46.459 34.56C47.227 36.7787 48.315 37.888 49.723 37.888C51.2163 37.888 53.0297 36.8214 55.163 34.688C57.2963 32.5547 58.683 30.6347 59.323 28.928C59.323 22.5707 59.1737 18.4747 58.875 16.64C56.6137 15.616 54.4163 15.104 52.283 15.104C50.1923 15.104 48.5923 15.616 47.483 16.64C46.075 19.8827 45.371 23.68 45.371 28.032ZM119.27 42.56C117.222 42.304 115.473 42.176 114.022 42.176C112.614 42.176 111.313 42.2187 110.118 42.304V41.408C110.758 38.08 111.163 32.5974 111.334 24.96C111.334 24.6187 111.334 24.2774 111.334 23.936C111.334 18.9014 110.438 16.384 108.646 16.384C107.11 16.384 105.233 17.4294 103.014 19.52C100.795 21.6107 99.302 23.552 98.534 25.344L98.278 40.192C99.7287 40.4907 101.201 40.9174 102.694 41.472L102.566 42.688C100.177 42.3467 98.2353 42.176 96.742 42.176C95.2487 42.176 93.9047 42.2187 92.71 42.304V41.408C93.35 38.08 93.7553 32.5974 93.926 24.96C93.926 24.6187 93.926 24.2774 93.926 23.936C93.926 18.9014 93.03 16.384 91.238 16.384C89.702 16.384 87.8247 17.4294 85.606 19.52C83.43 21.6107 81.958 23.552 81.19 25.344C81.19 31.5307 81.4247 36.5014 81.894 40.256C83.046 40.512 84.39 40.9174 85.926 41.472L85.798 42.688C83.4087 42.3467 81.1473 42.176 79.014 42.176C76.8807 42.176 74.726 42.304 72.55 42.56L72.358 41.344C73.638 40.7894 74.8967 40.3627 76.134 40.064C76.518 37.1627 76.71 33.8134 76.71 30.016V24.64C76.71 20.7147 76.5607 17.2374 76.262 14.208C75.238 13.8667 74.086 13.696 72.806 13.696V12.352C75.5367 12.224 78.4167 11.8187 81.446 11.136L81.894 11.392C81.4247 14.336 81.19 17.664 81.19 21.376L81.446 21.44C82.8113 19.4347 84.6033 17.3867 86.822 15.296C89.0407 13.1627 91.046 11.776 92.838 11.136C96.678 11.136 98.598 14.5494 98.598 21.376L98.854 21.44C100.219 19.4347 102.011 17.3867 104.23 15.296C106.449 13.1627 108.454 11.776 110.246 11.136C114.086 11.136 116.006 14.4854 116.006 21.184C116.006 21.4827 116.006 21.7814 116.006 22.08L115.686 40.064C116.923 40.3627 118.182 40.7894 119.462 41.344L119.27 42.56ZM124.876 30.912C124.876 26.4747 126.071 22.4214 128.46 18.752C130.849 15.04 134.049 12.5014 138.06 11.136C140.919 11.136 143.905 11.584 147.02 12.48C147.617 11.584 148.108 10.4534 148.492 9.08802L149.836 9.47202C148.897 13.312 148.428 20.096 148.428 29.824C148.428 34.176 148.577 37.5894 148.876 40.064C149.9 40.4054 151.052 40.576 152.332 40.576V41.92C149.601 42.048 146.721 42.4534 143.692 43.136L143.244 42.88C143.713 39.936 143.948 36.608 143.948 32.896L143.692 32.832C142.199 34.9654 140.428 37.0347 138.38 39.04C136.332 41.0454 134.391 42.4107 132.556 43.136C130.209 43.136 128.332 41.8347 126.924 39.232C125.559 36.6294 124.876 33.856 124.876 30.912ZM129.996 28.032C129.996 30.1227 130.359 32.2987 131.084 34.56C131.852 36.7787 132.94 37.888 134.348 37.888C135.841 37.888 137.655 36.8214 139.788 34.688C141.921 32.5547 143.308 30.6347 143.948 28.928C143.948 22.5707 143.799 18.4747 143.5 16.64C141.239 15.616 139.041 15.104 136.908 15.104C134.817 15.104 133.217 15.616 132.108 16.64C130.7 19.8827 129.996 23.68 129.996 28.032ZM203.895 42.56C201.847 42.304 200.098 42.176 198.647 42.176C197.239 42.176 195.938 42.2187 194.743 42.304V41.408C195.383 38.08 195.788 32.5974 195.959 24.96C195.959 24.6187 195.959 24.2774 195.959 23.936C195.959 18.9014 195.063 16.384 193.271 16.384C191.735 16.384 189.858 17.4294 187.639 19.52C185.42 21.6107 183.927 23.552 183.159 25.344L182.903 40.192C184.354 40.4907 185.826 40.9174 187.319 41.472L187.191 42.688C184.802 42.3467 182.86 42.176 181.367 42.176C179.874 42.176 178.53 42.2187 177.335 42.304V41.408C177.975 38.08 178.38 32.5974 178.551 24.96C178.551 24.6187 178.551 24.2774 178.551 23.936C178.551 18.9014 177.655 16.384 175.863 16.384C174.327 16.384 172.45 17.4294 170.231 19.52C168.055 21.6107 166.583 23.552 165.815 25.344C165.815 31.5307 166.05 36.5014 166.519 40.256C167.671 40.512 169.015 40.9174 170.551 41.472L170.423 42.688C168.034 42.3467 165.772 42.176 163.639 42.176C161.506 42.176 159.351 42.304 157.175 42.56L156.983 41.344C158.263 40.7894 159.522 40.3627 160.759 40.064C161.143 37.1627 161.335 33.8134 161.335 30.016V24.64C161.335 20.7147 161.186 17.2374 160.887 14.208C159.863 13.8667 158.711 13.696 157.431 13.696V12.352C160.162 12.224 163.042 11.8187 166.071 11.136L166.519 11.392C166.05 14.336 165.815 17.664 165.815 21.376L166.071 21.44C167.436 19.4347 169.228 17.3867 171.447 15.296C173.666 13.1627 175.671 11.776 177.463 11.136C181.303 11.136 183.223 14.5494 183.223 21.376L183.479 21.44C184.844 19.4347 186.636 17.3867 188.855 15.296C191.074 13.1627 193.079 11.776 194.871 11.136C198.711 11.136 200.631 14.4854 200.631 21.184C200.631 21.4827 200.631 21.7814 200.631 22.08L200.311 40.064C201.548 40.3627 202.807 40.7894 204.087 41.344L203.895 42.56ZM221.917 43.136C218.205 43.136 215.154 41.8987 212.765 39.424C210.376 36.9067 209.181 33.6214 209.181 29.568C209.181 25.5147 210.397 21.696 212.829 18.112C215.304 14.4854 218.546 12.16 222.557 11.136C226.525 11.136 229.533 12.288 231.581 14.592C233.629 16.896 234.653 20.0747 234.653 24.128C234.653 28.1814 233.458 32 231.069 35.584C228.68 39.168 225.629 41.6854 221.917 43.136ZM220.829 15.104C219.037 15.104 217.565 15.616 216.413 16.64C215.005 19.328 214.301 22.4214 214.301 25.92C214.301 29.4187 215.09 32.512 216.669 35.2C218.248 37.8454 220.36 39.168 223.005 39.168C224.797 39.168 226.29 38.6347 227.485 37.568C228.85 34.9654 229.533 31.808 229.533 28.096C229.533 24.3414 228.808 21.248 227.357 18.816C225.949 16.3414 223.773 15.104 220.829 15.104ZM248.431 29.696C248.431 35.584 249.071 38.528 250.351 38.528C252.698 38.528 255.13 37.3974 257.647 35.136L258.287 35.776C255.812 39.232 252.804 41.6854 249.263 43.136C246.831 43.136 245.274 42.0267 244.591 39.808C243.994 37.9307 243.695 34.688 243.695 30.08C243.695 29.2694 243.695 28.3947 243.695 27.456L243.951 14.72H240.495L240.367 14.592C240.367 13.9094 240.431 13.44 240.559 13.184C244.143 10.8374 246.49 8.40536 247.599 5.88802C248.111 5.76002 248.708 5.69602 249.391 5.69602L249.647 5.82402C249.22 8.38402 248.964 10.4534 248.879 12.032L257.839 11.712L258.095 11.968C257.796 12.736 257.519 13.7387 257.263 14.976C255.087 14.848 252.228 14.784 248.687 14.784L248.431 27.456C248.431 28.224 248.431 28.9707 248.431 29.696ZM275.167 43.136C271.455 43.136 268.404 41.8987 266.015 39.424C263.626 36.9067 262.431 33.6214 262.431 29.568C262.431 25.5147 263.647 21.696 266.079 18.112C268.554 14.4854 271.796 12.16 275.807 11.136C279.775 11.136 282.783 12.288 284.831 14.592C286.879 16.896 287.903 20.0747 287.903 24.128C287.903 28.1814 286.708 32 284.319 35.584C281.93 39.168 278.879 41.6854 275.167 43.136ZM274.079 15.104C272.287 15.104 270.815 15.616 269.663 16.64C268.255 19.328 267.551 22.4214 267.551 25.92C267.551 29.4187 268.34 32.512 269.919 35.2C271.498 37.8454 273.61 39.168 276.255 39.168C278.047 39.168 279.54 38.6347 280.735 37.568C282.1 34.9654 282.783 31.808 282.783 28.096C282.783 24.3414 282.058 21.248 280.607 18.816C279.199 16.3414 277.023 15.104 274.079 15.104ZM42.048 125.688C39.5307 125.347 36.8 125.176 33.856 125.176C30.9547 125.176 28.8427 125.261 27.52 125.432L27.264 124.536C27.9893 123.811 28.352 122.595 28.352 120.888C28.352 117.432 26.176 111.523 21.824 103.16C19.4347 105.336 17.3013 107.192 15.424 108.728C15.552 115.341 15.808 120.077 16.192 122.936C18.7093 123.192 21.12 123.597 23.424 124.152L23.232 125.688C20.0747 125.347 16.6187 125.176 12.864 125.176C9.10934 125.176 6.10134 125.347 3.84 125.688L3.584 124.088C5.504 123.491 7.552 123.043 9.728 122.744C10.1973 119.245 10.432 113.741 10.432 106.232V102.456C10.432 95.544 10.1547 90.04 9.6 85.944C7.424 85.6454 5.376 85.1974 3.456 84.6L3.712 83C5.97334 83.3414 8.832 83.512 12.288 83.512C15.7867 83.512 19.1147 83.3414 22.272 83L22.464 84.536C19.7333 85.176 17.6 85.5814 16.064 85.752C15.5947 88.952 15.36 94.6267 15.36 102.776V106.36C20.736 100.685 24.256 96.4827 25.92 93.752C27.584 91.0214 28.416 88.9307 28.416 87.48C28.416 85.9867 28.0533 84.8774 27.328 84.152L27.584 83.256C28.9067 83.4267 30.784 83.512 33.216 83.512C35.6907 83.512 38.1867 83.3414 40.704 83L40.96 84.6C39.04 85.1974 36.992 85.6454 34.816 85.944C34.432 89.5707 31.3173 94.1787 25.472 99.768L36.16 122.744C38.336 123.043 40.384 123.491 42.304 124.088L42.048 125.688ZM53.1485 107.64V113.016C53.1485 117.624 53.2978 121.037 53.5965 123.256C54.7912 123.512 56.1352 123.917 57.6285 124.472L57.5005 125.688C55.1112 125.347 52.8498 125.176 50.7165 125.176C48.5832 125.176 46.4285 125.304 44.2525 125.56L44.0605 124.344C45.3405 123.789 46.5992 123.363 47.8365 123.064C48.2205 120.163 48.4125 116.813 48.4125 113.016V107.64C48.4125 104.184 48.2418 100.728 47.9005 97.272C46.7912 96.9307 45.6392 96.76 44.4445 96.76V95.416C47.7298 95.2027 50.7592 94.776 53.5325 94.136L53.9805 94.392C53.4258 97.6774 53.1485 102.093 53.1485 107.64ZM54.3005 85.496C54.0018 86.0507 53.4685 86.7547 52.7005 87.608C51.9752 88.4614 51.3565 89.0587 50.8445 89.4C50.3325 89.0587 49.6925 88.4614 48.9245 87.608C48.1992 86.7547 47.6872 86.0507 47.3885 85.496C47.6445 84.984 48.1352 84.408 48.8605 83.768C49.5858 83.0854 50.2472 82.5947 50.8445 82.296C51.3992 82.6374 52.0392 83.1494 52.7645 83.832C53.4898 84.472 54.0018 85.0267 54.3005 85.496ZM70.7555 94.392C69.9448 99.3414 69.5395 105.656 69.5395 113.336C69.5395 118.371 70.4355 120.888 72.2275 120.888C73.7635 120.888 75.6408 119.821 77.8595 117.688C80.1208 115.512 81.5715 113.592 82.2115 111.928C82.2115 105.741 81.9768 100.771 81.5075 97.016C80.3555 96.76 79.0115 96.3547 77.4755 95.8L77.6035 94.584C79.9928 94.9254 82.2542 95.096 84.3875 95.096C86.5208 95.096 88.6755 94.968 90.8515 94.712L91.0435 95.928C89.7635 96.4827 88.5048 96.9094 87.2675 97.208C86.8835 100.109 86.6915 103.459 86.6915 107.256V112.632C86.6915 119.416 86.8408 124.323 87.1395 127.352C86.3288 129.699 84.6222 131.981 82.0195 134.2C79.4168 136.461 76.8355 138.04 74.2755 138.936C70.3502 138.936 66.7662 138.317 63.5235 137.08V136.248C65.1022 134.371 65.9982 131.981 66.2115 129.08H67.5555C67.5555 130.744 67.5982 132.045 67.6835 132.984C70.0728 134.307 72.8035 134.968 75.8755 134.968C77.5822 134.968 78.9688 134.456 80.0355 133.432C81.0168 130.829 81.6142 128.461 81.8275 126.328C82.0835 124.237 82.2115 120.76 82.2115 115.896L81.9555 115.832C80.6755 117.752 78.9048 119.8 76.6435 121.976C74.3822 124.109 72.3555 125.496 70.5635 126.136C68.0888 126.136 66.4888 124.963 65.7635 122.616C65.2088 120.952 64.9315 118.904 64.9315 116.472C64.9315 116.088 64.9315 115.661 64.9315 115.192L65.2515 97.208C64.2275 96.8667 63.0755 96.696 61.7955 96.696V95.352C64.4835 95.224 67.3208 94.8187 70.3075 94.136L70.7555 94.392ZM108.917 126.136C105.205 126.136 102.154 124.899 99.765 122.424C97.3757 119.907 96.181 116.621 96.181 112.568C96.181 108.515 97.397 104.696 99.829 101.112C102.304 97.4854 105.546 95.16 109.557 94.136C113.525 94.136 116.533 95.288 118.581 97.592C120.629 99.896 121.653 103.075 121.653 107.128C121.653 111.181 120.458 115 118.069 118.584C115.68 122.168 112.629 124.685 108.917 126.136ZM107.829 98.104C106.037 98.104 104.565 98.616 103.413 99.64C102.005 102.328 101.301 105.421 101.301 108.92C101.301 112.419 102.09 115.512 103.669 118.2C105.248 120.845 107.36 122.168 110.005 122.168C111.797 122.168 113.29 121.635 114.485 120.568C115.85 117.965 116.533 114.808 116.533 111.096C116.533 107.341 115.808 104.248 114.357 101.816C112.949 99.3414 110.773 98.104 107.829 98.104ZM173.895 125.56C171.847 125.304 170.098 125.176 168.647 125.176C167.239 125.176 165.938 125.219 164.743 125.304V124.408C165.383 121.08 165.788 115.597 165.959 107.96C165.959 107.619 165.959 107.277 165.959 106.936C165.959 101.901 165.063 99.384 163.271 99.384C161.735 99.384 159.858 100.429 157.639 102.52C155.42 104.611 153.927 106.552 153.159 108.344L152.903 123.192C154.354 123.491 155.826 123.917 157.319 124.472L157.191 125.688C154.802 125.347 152.86 125.176 151.367 125.176C149.874 125.176 148.53 125.219 147.335 125.304V124.408C147.975 121.08 148.38 115.597 148.551 107.96C148.551 107.619 148.551 107.277 148.551 106.936C148.551 101.901 147.655 99.384 145.863 99.384C144.327 99.384 142.45 100.429 140.231 102.52C138.055 104.611 136.583 106.552 135.815 108.344C135.815 114.531 136.05 119.501 136.519 123.256C137.671 123.512 139.015 123.917 140.551 124.472L140.423 125.688C138.034 125.347 135.772 125.176 133.639 125.176C131.506 125.176 129.351 125.304 127.175 125.56L126.983 124.344C128.263 123.789 129.522 123.363 130.759 123.064C131.143 120.163 131.335 116.813 131.335 113.016V107.64C131.335 103.715 131.186 100.237 130.887 97.208C129.863 96.8667 128.711 96.696 127.431 96.696V95.352C130.162 95.224 133.042 94.8187 136.071 94.136L136.519 94.392C136.05 97.336 135.815 100.664 135.815 104.376L136.071 104.44C137.436 102.435 139.228 100.387 141.447 98.296C143.666 96.1627 145.671 94.776 147.463 94.136C151.303 94.136 153.223 97.5494 153.223 104.376L153.479 104.44C154.844 102.435 156.636 100.387 158.855 98.296C161.074 96.1627 163.079 94.776 164.871 94.136C168.711 94.136 170.631 97.4854 170.631 104.184C170.631 104.483 170.631 104.781 170.631 105.08L170.311 123.064C171.548 123.363 172.807 123.789 174.087 124.344L173.895 125.56ZM188.461 107.64V113.016C188.461 117.624 188.61 121.037 188.909 123.256C190.104 123.512 191.448 123.917 192.941 124.472L192.813 125.688C190.424 125.347 188.162 125.176 186.029 125.176C183.896 125.176 181.741 125.304 179.565 125.56L179.373 124.344C180.653 123.789 181.912 123.363 183.149 123.064C183.533 120.163 183.725 116.813 183.725 113.016V107.64C183.725 104.184 183.554 100.728 183.213 97.272C182.104 96.9307 180.952 96.76 179.757 96.76V95.416C183.042 95.2027 186.072 94.776 188.845 94.136L189.293 94.392C188.738 97.6774 188.461 102.093 188.461 107.64ZM189.613 85.496C189.314 86.0507 188.781 86.7547 188.013 87.608C187.288 88.4614 186.669 89.0587 186.157 89.4C185.645 89.0587 185.005 88.4614 184.237 87.608C183.512 86.7547 183 86.0507 182.701 85.496C182.957 84.984 183.448 84.408 184.173 83.768C184.898 83.0854 185.56 82.5947 186.157 82.296C186.712 82.6374 187.352 83.1494 188.077 83.832C188.802 84.472 189.314 85.0267 189.613 85.496Z" fill="white"/>
</svg>
